<?xml version="1.0"?>
<svg version="1.1" xmlns="http://www.w3.org/2000/svg" xmlns:xlink="http://www.w3.org/1999/xlink" width="45px" height="50px">
    <desc iVinci="yes" version="4.5" gridStep="20" showGrid="no" snapToGrid="no" codePlatform="0"/>
    <g id="Layer1" opacity="1">
        <g id="Shape1">
            <desc shapeID="1" type="0" basicInfo-basicType="0" basicInfo-roundedRectRadius="12" basicInfo-polygonSides="6" basicInfo-starPoints="5" bounding="rect(-22.1884,-25.0101,44.3769,50.0202)" text="" font-familyName="" font-pixelSize="20" font-bold="0" font-underline="0" font-alignment="1" strokeStyle="0" markerStart="0" markerEnd="0" shadowEnabled="0" shadowOffsetX="0" shadowOffsetY="2" shadowBlur="4" shadowOpacity="160" blurEnabled="0" blurRadius="4" transform="matrix(1,0,0,1,22.1885,25.0101)" pers-center="0,0" pers-size="0,0" pers-start="0,0" pers-end="0,0" locked="0" mesh="" flag=""/>
            <path id="shapePath1" d="M31.7666,31.3541 C35.7822,28.206 39.4632,25 39.4632,17.1944 C39.4632,7.69842 31.7288,0 22.1884,0 C12.648,0 4.91365,7.69842 4.91365,17.1944 C4.91365,25 8.81329,28.3153 12.8289,31.4634 C5.62844,31.4634 0,41.5668 2.28882e-05,50.0202 L1.83402,50.0202 C1.83402,42.1045 7.0065,32.6835 14.7257,32.6835 C16.9871,33.7652 16.9471,34.3889 22.1884,34.3889 C27.4313,34.3889 27.3897,33.7652 29.6511,32.6835 C37.5213,32.6835 42.5428,42.1045 42.5428,50.0202 L44.3769,50.0202 C44.3769,41.5668 39.4632,31.9892 31.7666,31.3541 M22.1884,32.5742 C14.3818,32.5742 6.44116,23.0031 6.44116,17.1944 C6.44116,9.42412 14.3818,1.5129 22.1884,1.5129 C30.4085,1.5129 37.9357,8.97142 37.9357,17.1944 C37.9357,23.4558 29.995,32.5742 22.1884,32.5742 Z" style="stroke:none;fill-rule:evenodd;fill:#000000;fill-opacity:1;"/>
        </g>
    </g>
</svg>
